<?xml version="1.0" encoding="utf-8"?>
<svg version="1.1" xmlns="http://www.w3.org/2000/svg" xmlns:xlink="http://www.w3.org/1999/xlink" x="0px" y="0px"
	 viewBox="0 0 130 45" style="enable-background:new 0 0 130 45;" xml:space="preserve">
<style type="text/css">
	.st0{fill:#ffffff;}
	.st1{fill:#ffffff;}
	.st2{fill:#ffffff;}
	.st3{fill:#ffffff;}
	.st4{fill:#ffffff;}
</style>
<g>
	<path class="st0" d="M0.6,16.3h8.9c0,0,2.4,0.1,3.5-1.8c0,0,1.3-2.5,1.5-3H5.5c0,0-2.4,0.1-3.2,2.2C2.3,13.7,1.4,15.7,0.6,16.3z"/>
	<path class="st1" d="M33.8,4.4L30,7.7c-1.3-1.9-2.7-2.8-4.1-2.8c-0.7,0-1.2,0.2-1.7,0.5c-0.4,0.4-0.6,0.8-0.6,1.2S23.7,7.6,24,8
		c0.4,0.5,1.7,1.7,3.8,3.5c2,1.6,3.2,2.7,3.6,3.1c1,1.1,1.8,2.1,2.2,3c0.4,1,0.7,2,0.7,3.2c0,2.2-0.8,4.1-2.3,5.5
		c-1.5,1.4-3.5,2.2-6,2.2c-1.9,0-3.6-0.5-5-1.4c-1.4-0.9-2.7-2.4-3.7-4.5l4.3-2.6c1.3,2.4,2.8,3.6,4.5,3.6c0.9,0,1.6-0.3,2.2-0.8
		c0.6-0.5,0.9-1.1,0.9-1.8c0-0.6-0.2-1.2-0.7-1.8c-0.5-0.6-1.5-1.6-3-2.8c-2.9-2.4-4.9-4.3-5.7-5.6c-0.9-1.3-1.3-2.6-1.3-3.9
		c0-1.9,0.7-3.5,2.1-4.8c1.4-1.3,3.2-2,5.3-2c1.4,0,2.6,0.3,3.9,0.9C31,1.6,32.3,2.7,33.8,4.4z"/>
	<path class="st2" d="M60,14.7l1.1-2.4l-7.4,0.1l-3.1,6.4h7.8c-0.7,1.6-1.7,2.8-3,3.5c-1.2,0.7-2.7,1.1-4.5,1.1
		c-2.7,0-5-0.9-6.9-2.7c-1.9-1.8-2.8-4-2.8-6.6c0-2.5,0.9-4.7,2.7-6.4S48,5,50.7,5c3.1,0,5.7,1.2,8,3.6l0,0L61,3.8
		c-1.2-1.1-2.5-2-3.8-2.5C55.2,0.4,53,0,50.6,0c-4.5,0-8.2,1.6-11,4.7c-2.4,2.6-3.5,5.8-3.5,9.3c0,2.6,0.6,5,1.9,7.3
		c1.3,2.3,3,4,5.2,5.2c2.2,1.2,4.7,1.8,7.5,1.8c2.6,0,4.9-0.6,6.9-1.7c2-1.1,3.5-2.7,4.8-4.9c1.2-2.1,1.8-4.4,1.8-6.7l0-0.4L60,14.7
		z"/>
	<g>
		<polygon class="st3" points="5.1,10.4 5.1,5.7 14.8,5.7 14.8,0.7 0,0.7 0,10.4 		"/>
		<polygon class="st3" points="5.1,18.2 0,18.2 0,27.7 14.8,27.7 14.8,22.7 5.1,22.7 		"/>
	</g>
</g>
<g>
	<g>
		<polygon class="st3" points="76.9,10.7 74.4,10.7 71.6,8.2 74.1,8.2 		"/>
		<g>
			<polygon class="st2" points="92.3,10.4 89.2,10.4 89.2,11.4 96.8,11.4 96.8,10.4 93.6,10.4 93.6,9.9 97.3,9.9 97.3,8.9 93.6,8.9 
				93.6,8.1 92.3,8.1 92.3,8.9 88.6,8.9 88.6,9.9 92.3,9.9 			"/>
			<path class="st2" d="M97.1,13.6V13c0-0.3-0.1-0.6-0.3-0.8c-0.2-0.1-0.4-0.2-0.8-0.2h-6.2c-0.2,0-0.5,0.1-0.6,0.2
				c-0.2,0.2-0.3,0.5-0.3,0.7v0.7c0,0.3,0.1,0.6,0.3,0.8c0.2,0.1,0.4,0.3,0.6,0.3H96c0.4,0,0.6-0.1,0.8-0.3
				C97,14.1,97.1,13.9,97.1,13.6z M91.2,13.6h-0.8c-0.1,0-0.2-0.1-0.2-0.3v-0.3c0-0.1,0.1-0.2,0.3-0.3h0.8V13.6z M93.5,13.6h-1v-0.8
				h1V13.6z M95.7,13.4c0,0.1-0.2,0.3-0.3,0.3h-0.7v-0.8h0.7c0.2,0,0.3,0.1,0.3,0.3V13.4z"/>
			<path class="st2" d="M85.7,17.5c0,1.4,0.2,3.1,0.4,4.4h1.2C87,20.5,87,19,86.9,17.5H85.7z"/>
			<path class="st2" d="M88.7,21.9h2.2c0.7-0.4,1.3-0.8,1.8-1.4h-2C90.1,21.1,89.4,21.5,88.7,21.9z"/>
			<path class="st2" d="M88.5,17.5h-1.2c0.1,1.3,0.2,2.5,0.4,3.7H89C88.7,19.9,88.6,18.6,88.5,17.5z"/>
			<path class="st2" d="M90.5,15.1c-0.3,0-0.6,0.1-0.8,0.3c-0.2,0.2-0.4,0.5-0.4,0.8V19c0,0.3,0.1,0.5,0.3,0.7
				c0.2,0.2,0.4,0.4,0.7,0.4h5.1c0.3,0,0.6-0.1,0.8-0.3c0.2-0.2,0.3-0.5,0.3-0.7v-2.7c0-0.3-0.1-0.6-0.3-0.9
				c-0.2-0.2-0.5-0.4-0.8-0.4H90.5z M95.2,18.9c0,0.2-0.1,0.3-0.3,0.3H91c-0.1,0-0.3-0.1-0.3-0.3v-0.2h4.5V18.9z M95.2,17.8h-4.5
				v-0.5h4.5V17.8z M95.2,16.5h-4.5v-0.2c0-0.1,0.1-0.3,0.3-0.3H95c0.1,0,0.3,0.1,0.3,0.3V16.5z"/>
			<path class="st2" d="M95.6,20.5h-1.9c0.4,0.5,1,1,1.6,1.4h2.3C96.9,21.5,96.1,21,95.6,20.5z"/>
			<path class="st2" d="M84.3,12.7h1.6l-2,2.9c-0.2,0.3-0.2,0.7-0.1,0.9c0.1,0.3,0.4,0.4,0.8,0.4H87l0.4-0.8
				c0.1,0.3,0.2,0.6,0.3,0.8H89c-0.3-0.7-0.6-2.1-0.7-2.9H87c0.1,0.5,0.3,1.4,0.4,1.8h-2.2l3.6-5.2h-1.6l-0.6,1h-1.4l2.2-3.5h-1.5
				l-2.2,3.5c-0.2,0.3-0.1,0.5,0,0.7C83.8,12.5,84,12.7,84.3,12.7z"/>
			<path class="st2" d="M83.6,20.6c-0.1,0.3-0.3,0.3-0.4,0.3h-1.2c-0.2,0-0.3-0.1-0.5-0.2c-1.7-1.3-3.1-3.1-4.4-4.8
				c1.5-1.2,2.9-2.7,3.6-4.4h-1.6c-0.6,1.2-1.5,2.4-2.7,3.3c-0.3-0.5-0.7-1.2-1.1-1.8v-0.5c0-0.4-0.1-0.8-0.4-1
				c-0.3-0.3-0.6-0.4-1-0.4h-3.7v1.1h3.3c0.2,0,0.4,0.2,0.4,0.4v7.8c0,0.2-0.2,0.4-0.4,0.4h-2.2l0.6,1.1h2c0.4,0,0.8-0.1,1-0.4
				c0.3-0.3,0.4-0.7,0.4-1.2v-4.8c1.1,1.9,2.6,3.8,4.2,5.4c0,0,0.1,0.1,0.2,0.2c0.3,0.2,0.4,0.2,0.7,0.2h3.7c0.3,0,0.5-0.2,0.6-0.5
				c0.1-0.2,0.5-1.9,0.5-3.4h-1.2C84.1,18.6,83.9,19.7,83.6,20.6z"/>
			<path class="st2" d="M73.2,14.1c-0.2-0.3-0.6-0.5-1.1-0.5h-3.8v1.1h3.4c0.1,0,0.2,0.1,0.2,0.3c-0.9,2.3-2.4,4.2-4.3,5.9h2
				c1.4-1.5,2.7-3.1,3.6-5.4C73.4,14.9,73.4,14.4,73.2,14.1z"/>
		</g>
	</g>
	<g>
		<path class="st2" d="M110.1,13.8h-9.9c-0.3,0-0.5-0.2-0.6-0.4c-0.1-0.2-0.1-0.5,0.1-0.8l3.9-4.6h1.9l-3.9,4.6h8.8
			c-0.6-1-1.2-2.1-1.7-3.2h1.6c0.7,1.5,1.7,3,2.8,4.3L110.1,13.8z M112,21.4c-0.3,0.3-0.6,0.4-1,0.4h-9.4c-0.4,0-0.7-0.1-1-0.4
			c-0.3-0.3-0.4-0.6-0.4-1.1v-3.6c0-0.4,0.1-0.7,0.4-1c0.3-0.3,0.6-0.4,1.1-0.4h9.3c0.4,0,0.8,0.2,1,0.5c0.2,0.3,0.3,0.6,0.3,1v3.5
			C112.4,20.8,112.2,21.1,112,21.4z M110.9,17c0-0.3-0.2-0.5-0.5-0.5h-8.3c-0.2,0-0.5,0.2-0.5,0.4v3.3c0,0.2,0.1,0.4,0.4,0.4h8.5
			c0.2,0,0.4-0.2,0.4-0.4V17z"/>
		<path class="st2" d="M116.6,21.7l-1.3,0.2c0.6-1.5,1.3-4.1,1.4-5.7h1.4c-0.2,1.3-0.7,3.8-1.1,5.1
			C116.9,21.4,116.7,21.5,116.6,21.7z M116.7,11.4c-0.4-0.7-1.1-2.4-1.4-3.3h1.5c0.2,0.9,0.9,2.4,1.5,3.3H116.7z M116.7,15.4
			c-0.4-0.8-1.1-2.5-1.3-3.5h1.4c0.2,0.9,0.9,2.6,1.5,3.5H116.7z M119.2,15h-0.9c0.2-0.6,0.3-1.6,0.4-2.3h0.8
			C119.4,13.4,119.3,14.4,119.2,15z M126.9,11.5h1.1c-0.1-0.2-0.2-0.6-0.2-0.8h0.9c0.1,0.4,0.3,1.2,0.5,1.6h-0.9
			c-0.1-0.2-0.2-0.5-0.2-0.6l-0.4,0.6h-1.5c-0.3,0-0.5-0.1-0.6-0.3c-0.1-0.2,0-0.4,0.2-0.6c0.3-0.3,0.8-0.9,1-1.1h-0.5
			c-0.2,0-0.3,0-0.4-0.1c-0.1-0.1-0.2-0.2-0.2-0.3h-3.8V9.4c-0.5,0.5-1.5,1.6-2.1,2.1h1.1c0-0.2-0.1-0.6-0.1-0.8h0.9
			c0,0.4,0.2,1.2,0.4,1.6h-0.9c0-0.1-0.1-0.4-0.2-0.6l-0.4,0.6h-1.8c-0.2,0-0.3-0.1-0.4-0.3c-0.1-0.2-0.1-0.3,0.1-0.5
			c0.4-0.4,0.9-0.9,1.2-1.3H119c-0.2,0-0.4-0.1-0.5-0.3c-0.1-0.2-0.1-0.4,0.1-0.6c0.3-0.3,1-1,1.3-1.4h1.3c-0.4,0.4-1.1,1.1-1.4,1.5
			h0.7c0.1-0.1,0.3-0.3,0.4-0.4h1V8.9h1.2c-0.1-0.2-0.2-0.6-0.2-0.8h1.3c0,0.2,0.1,0.6,0.2,0.8h1.4v0.4c0.3-0.3,0.9-1,1.1-1.3h1.2
			c-0.3,0.4-0.9,1.1-1.3,1.5h0.6c0.2-0.2,0.4-0.5,0.6-0.6h1.2C128.6,9.6,127.6,10.7,126.9,11.5z M128.5,21.5
			c-0.2,0.2-0.5,0.4-0.9,0.4h-4.3l-0.6-1h4.3c0.1,0,0.3-0.2,0.3-0.3v-0.3c0-0.1-0.1-0.3-0.3-0.3h-7c-0.3,0-0.6-0.1-0.8-0.3
			c-0.2-0.2-0.3-0.4-0.3-0.7v-0.5c0-0.4,0.1-0.7,0.4-0.9c0.2-0.1,0.5-0.2,0.8-0.2h6.6c0.1,0,0.3-0.2,0.3-0.3v-0.2
			c0-0.1-0.1-0.3-0.3-0.3h-8v-0.9h8.7c0.3,0,0.6,0.1,0.8,0.3c0.1,0.2,0.2,0.4,0.2,0.6v0.7c0,0.3-0.1,0.5-0.3,0.7
			c-0.2,0.2-0.5,0.3-0.8,0.3h-6.8c-0.1,0-0.3,0.1-0.3,0.3v0.3c0,0.1,0.1,0.3,0.3,0.3h7c0.3,0,0.5,0.1,0.7,0.3
			c0.2,0.2,0.3,0.5,0.3,0.8v0.9C128.7,21.1,128.6,21.3,128.5,21.5z M119.9,15c-0.1-0.6-0.2-1.7-0.2-2.3h0.7c0,0.6,0.1,1.7,0.2,2.3
			H119.9z M121.1,15c-0.1-0.6-0.2-1.7-0.3-2.3h0.7c0,0.6,0.2,1.7,0.3,2.3H121.1z M125.2,14.8c-0.1,0.1-0.3,0.2-0.6,0.2h-1.8
			c-0.3,0-0.5-0.1-0.6-0.2c-0.1-0.1-0.2-0.3-0.2-0.6v-0.7c0-0.3,0.1-0.5,0.3-0.7c0.1-0.1,0.3-0.2,0.6-0.2h1.8c0.3,0,0.5,0.1,0.6,0.3
			c0.1,0.1,0.2,0.3,0.2,0.6v0.7C125.4,14.4,125.3,14.6,125.2,14.8z M122.2,11v-0.8h3.2V11H122.2z M122.2,12.2v-0.8h3.2v0.8H122.2z
			 M124.3,13.7c0-0.1-0.1-0.2-0.2-0.2h-0.8c-0.1,0-0.2,0.1-0.2,0.2v0.3c0,0.1,0.1,0.2,0.2,0.2h0.8c0.1,0,0.2-0.1,0.2-0.2V13.7z
			 M126.3,15h-0.9c0.2-0.7,0.4-1.7,0.4-2.3h0.8C126.6,13.3,126.5,14.3,126.3,15z M127.1,15c-0.1-0.5-0.2-1.7-0.2-2.3h0.7
			c0,0.6,0.1,1.8,0.2,2.3H127.1z M128.3,15c-0.1-0.6-0.2-1.7-0.3-2.3h0.8c0,0.6,0.2,1.7,0.3,2.3H128.3z"/>
		<path class="st2" d="M115.6,21C115.6,21,115.6,21,115.6,21c-0.2,0.4-0.4,0.4-0.5,0.4h-0.8c0,0,0,0-0.1,0c-0.1,0.2-0.2,0.4-0.3,0.6
			h2.3c0.4,0,0.6-0.2,0.7-0.6c0,0,0-0.2,0.1-0.3L115.6,21z"/>
	</g>
</g>
<g>
	<path class="st4" d="M5,33.8c0,0-0.1-0.1-0.1-0.1l0,0c-0.1-0.1-0.2-0.1-0.2-0.1c-0.1,0-0.1,0-0.2,0.1c-0.1,0.1-0.2,0.2-0.3,0.4
		c-0.1,0.4-0.4,0.8-0.9,1.4c-0.1,0.1-0.2,0.3-0.3,0.5c-0.1,0.2-0.2,0.2-0.2,0.3c0,0-0.1-0.1-0.2-0.2c-0.1-0.2-0.3-0.3-0.4-0.5
		c-0.1-0.2-0.2-0.3-0.2-0.4C2,35,1.9,34.8,1.8,34.7c-0.1-0.1-0.2-0.2-0.3-0.2l0,0l0,0c0,0-0.1,0-0.1,0c0,0-0.1,0-0.1,0.1
		c0,0-0.1,0.1-0.1,0.1c0,0.1-0.1,0.1-0.1,0.2c0,0.1,0,0.2,0.1,0.2c0.1,0.1,0.1,0.2,0.1,0.3c0,0.2,0,0.3-0.1,0.5l-0.2,0.7
		c-0.2,0.8-0.3,1.5-0.5,2.1c0,0.2-0.1,0.4-0.1,0.5c0,0.2-0.1,0.3-0.1,0.5c-0.1,0.2-0.1,0.4,0,0.5c0.1,0.2,0.3,0.2,0.4,0.2
		c0.1,0,0.1-0.1,0.2-0.2C0.9,40.1,1,40,1,39.9c0-0.1,0-0.2,0-0.2c0,0,0-0.2,0.3-1.4c0.1-0.2,0.2-0.6,0.3-1.3
		c0.1-0.5,0.2-0.6,0.2-0.7c0,0,0,0,0,0c0.1,0.1,0.2,0.3,0.4,0.5c0.3,0.3,0.3,0.4,0.4,0.4c0.1,0,0.2,0,0.3,0c0.1-0.1,0.2-0.2,0.3-0.4
		c0.2-0.4,0.4-0.7,0.6-1c0,0,0.1-0.1,0.1-0.2c0.1-0.1,0.1-0.2,0.2-0.2c0,0,0,0,0,0c0,0.1,0,0.3-0.1,0.7l0,0.4c0,0.6-0.1,1-0.1,1.4
		c0,0.3-0.1,0.6-0.1,0.8c0,0.2,0,0.5-0.1,0.7c-0.1,0.4-0.1,0.6,0,0.7l0,0c0,0.1,0.2,0.2,0.4,0.3c0,0,0,0,0.1,0
		c0.1,0,0.2-0.1,0.2-0.1c0.1-0.1,0.1-0.2,0.1-0.4c0-0.1,0-0.3,0.1-0.4c0-0.2,0.1-0.4,0.1-0.8c0-0.3,0-0.6,0-0.8
		c0-0.2,0.1-0.6,0.1-1.3c0-0.2,0-0.4,0.1-0.7C5,35.4,5.1,34.8,5,34.2C5.1,34,5,33.9,5,33.8z"/>
	<path class="st4" d="M9.3,39.1c-0.1,0-0.3-0.1-0.7-0.7C8.5,38.1,8.4,38,8.4,38c0-0.1,0-0.2,0.2-0.4l0.2-0.3l-0.1-0.3
		c-0.1-0.1-0.1-0.2-0.2-0.3l0,0c-0.1,0-0.2,0-0.3-0.1c-0.2,0-0.3,0-0.3,0c0,0-0.1,0-0.1,0c-0.3,0-0.7,0.3-1.3,0.8
		c-0.4,0.3-0.7,0.7-0.9,1.1c-0.2,0.4-0.2,0.6-0.2,0.9c0.1,0.2,0.2,0.3,0.3,0.4C5.7,39.9,5.9,40,6,40c0.2,0,0.4-0.1,0.6-0.2
		c0.1-0.1,0.3-0.2,0.6-0.5c0.3-0.3,0.5-0.5,0.5-0.6c0,0,0-0.1,0.1-0.1c0,0,0,0.1,0.1,0.1C8,39,8.2,39.3,8.4,39.6
		C8.9,40,9.2,40,9.5,39.8c0.1-0.1,0.2-0.2,0.2-0.3c0-0.1,0-0.2-0.1-0.3C9.5,39.1,9.4,39.1,9.3,39.1z M7.6,37.5c0,0-0.1,0.1-0.1,0.1
		c0,0,0,0.1-0.1,0.3c-0.1,0.2-0.2,0.3-0.2,0.4c-0.1,0.2-0.3,0.3-0.5,0.5l0,0c-0.2,0.2-0.3,0.3-0.4,0.4C6.1,39.3,6,39.3,6,39.3
		c0,0-0.1-0.1-0.1-0.1C5.9,39,6,39,6,38.9c0.1-0.1,0.2-0.2,0.3-0.4c0.1-0.1,0.2-0.3,0.4-0.5c0.2-0.2,0.4-0.3,0.6-0.4
		C7.4,37.6,7.5,37.5,7.6,37.5z"/>
	<path class="st4" d="M12.6,37.6c0.2-0.1,0.3-0.2,0.5-0.3c0.1-0.1,0.3-0.2,0.4-0.3c0.3-0.2,0.4-0.3,0.4-0.5c0-0.1-0.1-0.2-0.2-0.2
		c-0.1,0-0.2,0-0.3,0.1c-0.1,0.1-0.2,0.1-0.3,0.2c-0.1,0.1-0.3,0.1-0.4,0.2c-0.2,0.2-0.4,0.4-0.6,0.5c0,0-0.1,0.1-0.4,0.3
		c-0.2,0.1-0.2,0.1-0.2,0.1c0,0,0,0,0,0c0,0,0-0.1,0-0.1c0,0,0-0.1,0-0.1c0,0,0-0.1,0-0.2c0-0.1,0-0.1,0-0.2c0-0.3,0.1-0.5,0.1-0.8
		c0-0.2,0.1-0.4,0.1-0.7c0-0.2,0.1-0.5,0.1-0.8c0-0.3,0.1-0.7,0.2-1.5c0-0.3,0-0.4,0-0.5c-0.1-0.1-0.1-0.1-0.2-0.1
		c-0.1,0-0.2,0-0.2,0.1c-0.1,0-0.1,0.2-0.2,0.7c0,0.4-0.1,0.6-0.1,0.8c0,0.2-0.1,0.3-0.1,0.5c0,0,0,0.1,0,0.2c0,0.1,0,0.2,0,0.3
		c0,0.1,0,0.2,0,0.3c0,0.3-0.1,0.5-0.1,0.8c0,0.1-0.1,0.4-0.1,0.9c0,0.3-0.1,0.6-0.1,0.7c-0.1,0.2-0.1,0.3-0.1,0.4
		c0,0.3-0.1,0.6-0.3,0.9c-0.1,0.3-0.2,0.4-0.2,0.5c0,0.1,0,0.3,0.1,0.4c0.1,0.1,0.2,0.1,0.3,0.1c0.1,0,0.2,0,0.3-0.1
		c0.1-0.1,0.1-0.2,0.1-0.3c0-0.1,0-0.2,0.1-0.3c0.2-0.3,0.3-0.6,0.4-1c0-0.1,0-0.1,0-0.2c0,0,0.1,0.1,0.3,0.2
		c0.2,0.2,0.3,0.3,0.3,0.3c0,0,0.1,0.1,0.4,0.5c0.3,0.3,0.4,0.5,0.5,0.6c0,0.1,0.1,0.1,0.1,0.1c0,0,0.1,0.1,0.1,0.1h0
		c0,0,0.1,0,0.1,0c0.1,0,0.3-0.1,0.4-0.2c0.1-0.1,0.2-0.2,0.2-0.3c0-0.1,0-0.2-1-1.1c-0.5-0.5-0.6-0.6-0.6-0.6
		C12.2,38,12.2,37.9,12.6,37.6z"/>
	<path class="st4" d="M16.2,37.6c-0.1,0.1-0.2,0.3-0.3,0.7c0,0.3-0.1,0.7-0.2,1.3c0,0.2,0,0.3,0,0.4c0,0.1,0.1,0.2,0.2,0.3
		c0.1,0,0.1,0.1,0.2,0.1c0,0,0.1,0,0.1,0c0.1,0,0.2-0.1,0.2-0.2c0-0.1,0.1-0.2,0.1-0.3c0-0.1,0-0.3,0.1-0.4c0.1-0.2,0.1-0.6,0.2-1.2
		c0-0.2,0-0.3-0.1-0.4C16.6,37.6,16.4,37.5,16.2,37.6z"/>
	<path class="st4" d="M17.3,34.8c-0.2,0-0.7-0.1-1.4-0.3c-0.2,0-0.3,0-0.4,0.1c-0.1,0.1-0.2,0.2-0.2,0.3c0,0.1,0,0.2,0.2,0.3
		c0.1,0.1,0.3,0.2,1.3,0.4c0.1,0,0.3,0.1,0.4,0.1c0.1,0,0.1,0,0.2,0c0.2,0,0.3-0.1,0.4-0.2c0.2-0.2,0.1-0.4,0-0.4
		C17.6,34.9,17.5,34.8,17.3,34.8z"/>
	<path class="st4" d="M22.1,36.7c-0.2,0.1-0.5,0.3-0.9,0.5c-0.2,0.1-0.4,0.3-0.7,0.5c-0.2,0.2-0.3,0.2-0.4,0.3c0,0,0,0,0-0.1
		c0.1-0.2,0.1-0.4,0.2-0.7c0-0.1,0-0.2-0.1-0.3c-0.1-0.1-0.1-0.1-0.2-0.1c-0.1,0-0.2,0-0.3,0.1c-0.1,0.1-0.1,0.2-0.1,0.4
		c0,0.2-0.1,0.4-0.2,0.5c-0.3,0.6-0.3,0.8-0.3,0.9c0,0,0,0.1-0.2,0.5c-0.2,0.3-0.2,0.5-0.3,0.6c0,0.1,0,0.3,0.1,0.4
		c0.1,0.1,0.2,0.1,0.2,0.1c0,0,0.1,0,0.1,0c0.1,0,0.2-0.1,0.3-0.4c0.1-0.2,0.2-0.4,0.3-0.5c0-0.1,0.2-0.3,0.7-0.8
		c0.3-0.3,0.6-0.5,1-0.8c0.5-0.4,0.7-0.4,0.8-0.4c0,0,0.1,0,0.1,0.2c0,0,0,0.1-0.2,0.6c-0.1,0.3-0.2,0.6-0.3,0.9
		c-0.1,0.2-0.1,0.3-0.2,0.5c0,0.1,0,0.2,0,0.2c0,0.1,0.1,0.1,0.1,0.2c0.1,0.1,0.2,0.1,0.3,0c0.1,0,0.2-0.1,0.3-0.3
		c0.1-0.1,0.1-0.2,0.1-0.2c0-0.1,0.1-0.1,0.1-0.2c0-0.1,0.1-0.2,0.1-0.3c0.1-0.1,0.1-0.2,0.2-0.3c0-0.1,0.1-0.3,0.1-0.4
		c0-0.1,0.1-0.3,0.1-0.4c0-0.1,0-0.2,0.1-0.3c0-0.2,0-0.3-0.1-0.5C23,36.7,22.7,36.5,22.1,36.7z"/>
	<path class="st4" d="M26.9,36.8c-0.1-0.1-0.3-0.1-0.5-0.2c-0.2,0-0.4,0-0.5,0c-0.4,0.1-0.7,0.3-1,0.5c-0.2,0.1-0.4,0.2-0.5,0.4
		c-0.2,0.1-0.3,0.3-0.5,0.5c-0.1,0.2-0.2,0.4-0.3,0.6c0,0.2,0,0.5,0.2,0.7c0.1,0.2,0.3,0.3,0.6,0.3c0.2,0,0.3,0,0.5-0.1
		c0.2-0.1,0.4-0.2,0.5-0.3c0.1-0.1,0.2-0.1,0.2-0.1c0,0.1,0,0.6-0.1,2.2l-0.1,0.8L25.3,42c-0.1,0.1-0.3,0.2-0.3,0.2
		c-0.2,0.1-0.4,0.3-0.6,0.5c-0.4,0.3-0.4,0.4-0.4,0.5c0,0.2,0,0.4,0.2,0.6c0.1,0.2,0.3,0.4,0.4,0.6c0,0,0.1,0.1,0.2,0.1
		c0.1,0.1,0.2,0.1,0.3,0.1c0.1,0,0.2,0.1,0.2,0.1c0,0,0,0,0.1,0c0.1,0,0.2,0,0.3-0.1c0.1-0.1,0.2-0.2,0.2-0.3c0-0.1,0.1-0.1,0.1-0.2
		c0,0,0.1-0.1,0.2-1.1l0.1-0.5l0.1-0.6c0-0.1,0-0.3,0.1-0.7c0-0.3,0.1-0.8,0.1-1.4c0.1-0.7,0.1-1.1,0.1-1.3c0-0.4,0.1-0.6,0.1-0.6
		c0.1-0.1,0.1-0.2,0.1-0.2c0,0,0,0,0.2-0.2c0.2-0.1,0.3-0.3,0.2-0.4C27.2,37.1,27.1,36.9,26.9,36.8z M26.2,37.2
		c-0.1,0-0.1,0.1-0.2,0.3c-0.2,0.4-0.4,0.7-0.7,0.9c-0.3,0.2-0.5,0.3-0.7,0.3c-0.1,0-0.2-0.1-0.1-0.3c0-0.1,0.1-0.3,0.4-0.5
		c0.2-0.2,0.5-0.4,0.9-0.6c0.1-0.1,0.2-0.1,0.3-0.1C26.1,37.2,26.2,37.2,26.2,37.2z M25.4,42.8c0,0.1,0,0.2,0,0.3
		c0,0.3-0.1,0.4-0.1,0.6c0,0.2-0.1,0.2-0.1,0.2c0,0,0,0-0.1,0c0,0-0.1-0.1-0.1-0.1c-0.1-0.1-0.1-0.1-0.1-0.2c0-0.1-0.1-0.1-0.1-0.2
		c0-0.1,0-0.1,0.1-0.2C25,43,25.2,42.9,25.4,42.8C25.3,42.8,25.3,42.8,25.4,42.8z"/>
	<path class="st4" d="M37.1,33.3c0-0.1,0-0.2-0.1-0.3c-0.1-0.1-0.1-0.1-0.3-0.1c-0.1,0-0.2,0-0.2,0c-0.1,0-0.4,0.2-0.7,0.3
		c-0.4,0.2-1.2,0.4-2.3,0.8c-0.1,0-0.2,0.1-0.3,0.1c-0.1,0-0.2,0.1-0.2,0.1l0,0c-0.7,0.2-0.9,0.2-0.9,0.2c-0.1,0-0.2,0-0.3,0.1
		c-0.1,0.1-0.2,0.1-0.2,0.3c0,0.1,0,0.2,0.1,0.3c0.1,0.1,0.1,0.1,0.2,0.1c0,0,0.1,0,0.3-0.1c0.3-0.1,0.7-0.2,1.3-0.4
		c0.2,0,0.3-0.1,0.5-0.2c0.1-0.1,0.2-0.1,0.2-0.1c0.1,0,0.2,0,0.3-0.1c0,0,0,0,0,0c0,0.1,0,0.1,0,0.3c-0.2,1.1-0.3,2.3-0.4,3.4v0
		c0,0.3,0,0.8,0,1.3c0,0.7,0,0.9,0.1,1c0.1,0.1,0.2,0.1,0.3,0.1c0.1,0,0.1,0,0.2-0.1c0.1-0.1,0.2-0.2,0.2-0.4c0-1.1,0-1.9,0-2.2
		c0-0.3,0.1-0.6,0.1-0.9c0-0.3,0.1-0.5,0.1-0.7c0-0.1,0.1-0.3,0.1-0.6c0-0.2,0-0.4,0.1-0.7c0-0.1,0-0.2,0.1-0.3c0-0.2,0-0.3,0-0.3
		c0-0.2,0.1-0.2,0.1-0.2c0,0,0.1-0.1,0.6-0.3c0.5-0.2,0.6-0.2,0.7-0.2c0.1,0,0.2-0.1,0.3-0.2C37,33.5,37.1,33.4,37.1,33.3z"/>
	<path class="st4" d="M40.9,39.1c-0.1,0-0.3-0.1-0.7-0.7C40.1,38.1,40,38,40,38c0-0.1,0-0.2,0.2-0.4l0.2-0.3l-0.1-0.3
		c-0.1-0.1-0.1-0.2-0.2-0.3l0,0c-0.1,0-0.2,0-0.3-0.1c-0.2,0-0.3,0-0.3,0c0,0-0.1,0-0.1,0c-0.3,0-0.7,0.3-1.3,0.8
		c-0.4,0.3-0.7,0.7-0.9,1.1c-0.2,0.4-0.2,0.6-0.2,0.9c0.1,0.2,0.2,0.3,0.3,0.4c0.1,0.1,0.2,0.1,0.4,0.1c0.2,0,0.4-0.1,0.6-0.2
		c0.1-0.1,0.3-0.2,0.6-0.5c0.3-0.3,0.5-0.5,0.5-0.6c0,0,0-0.1,0.1-0.1c0,0,0,0.1,0.1,0.1c0.1,0.3,0.3,0.6,0.6,0.8
		c0.4,0.4,0.8,0.5,1.1,0.2c0.1-0.1,0.2-0.2,0.2-0.3c0-0.1,0-0.2-0.1-0.3C41.1,39.1,41,39.1,40.9,39.1z M39.2,37.5
		c0,0-0.1,0.1-0.1,0.1c0,0,0,0.1-0.1,0.3c-0.1,0.2-0.2,0.3-0.2,0.4c-0.1,0.2-0.3,0.3-0.5,0.5l0,0c-0.2,0.2-0.3,0.3-0.4,0.4
		c-0.2,0.1-0.2,0.1-0.3,0.1c0,0-0.1-0.1-0.1-0.1c0-0.1,0-0.1,0.1-0.2c0.1-0.1,0.2-0.2,0.3-0.4c0.1-0.1,0.2-0.3,0.4-0.5
		c0.2-0.2,0.4-0.3,0.6-0.4C39,37.6,39.1,37.5,39.2,37.5z"/>
	<path class="st4" d="M43.3,37.6c-0.1,0.1-0.2,0.3-0.3,0.7c0,0.3-0.1,0.8-0.2,1.3c0,0.2,0,0.3,0,0.4c0,0.1,0.1,0.2,0.2,0.3
		c0.1,0,0.1,0.1,0.2,0.1c0,0,0.1,0,0.1,0c0.1,0,0.2-0.1,0.2-0.2c0-0.1,0.1-0.2,0.1-0.3c0-0.1,0-0.3,0.1-0.4c0.1-0.2,0.1-0.6,0.2-1.2
		c0-0.2,0-0.3-0.1-0.4C43.7,37.6,43.5,37.5,43.3,37.6z"/>
	<path class="st4" d="M44.4,34.8c-0.2,0-0.7-0.1-1.4-0.3c-0.2,0-0.3,0-0.4,0.1c-0.1,0.1-0.2,0.2-0.2,0.3c0,0.1,0,0.2,0.2,0.3
		c0.1,0.1,0.3,0.2,1.3,0.4c0.1,0,0.3,0.1,0.4,0.1c0.1,0,0.1,0,0.2,0c0.2,0,0.3-0.1,0.4-0.2c0.2-0.2,0.1-0.4,0-0.4
		C44.7,34.9,44.6,34.8,44.4,34.8z"/>
	<path class="st4" d="M50.9,36.9c0-0.1,0-0.1-0.1-0.2c0,0-0.1-0.1-0.1-0.1c-0.1,0-0.1,0-0.1,0c-0.1,0-0.2,0-0.2,0.1
		c0,0-0.1,0.1-0.3,0.4c-0.1,0.2-0.2,0.4-0.4,0.7c-0.1,0.2-0.3,0.4-0.5,0.7c-0.2,0.2-0.3,0.3-0.3,0.3c0,0,0,0,0-0.1
		c0-0.1-0.1-0.3-0.1-0.5c0-0.2,0-0.4,0-0.7c0-0.4,0-0.5-0.1-0.5c0-0.1-0.1-0.1-0.3-0.1c-0.1,0-0.2,0-0.2,0c-0.1,0-0.1,0.1-0.1,0.1
		c0,0-0.1,0.1-0.1,0.2c-0.1,0.3-0.3,0.7-0.6,1c-0.2,0.2-0.3,0.3-0.3,0.3c0,0-0.1,0.1-0.4,0.4c-0.2,0.2-0.3,0.2-0.3,0.3
		c0,0,0-0.1,0-0.1c0-0.1,0-0.3,0.1-0.7c0.1-0.4,0.1-0.7,0.1-0.8c0-0.1,0-0.2-0.1-0.2c0,0-0.1-0.1-0.2-0.1c-0.2,0-0.3,0-0.3,0.1
		c0,0-0.1,0.1-0.2,0.6c-0.1,0.3-0.1,0.6-0.1,0.7c0,0.1,0,0.2,0,0.4c0,0.2,0,0.3,0,0.5c0,0.2,0.1,0.3,0.1,0.4
		c0.1,0.1,0.1,0.1,0.2,0.1c0,0,0.1,0,0.1,0c0.1,0,0.3-0.1,0.5-0.3c0.3-0.2,0.5-0.4,0.7-0.6c0.4-0.5,0.6-0.7,0.7-0.8
		c0,0.1,0,0.2,0.1,0.3c0,0.2,0.1,0.3,0.1,0.4c0,0.1,0.1,0.1,0.1,0.2c0,0.1,0.1,0.1,0.2,0.2c0.1,0.1,0.2,0.1,0.2,0.1
		c0.1,0,0.1,0,0.2,0c0.2,0,0.3,0,0.3-0.1c0,0,0.1-0.1,0.3-0.3c0.2-0.2,0.3-0.4,0.5-0.6c0.2-0.2,0.3-0.4,0.3-0.5l0,0
		c0,0,0-0.1,0.1-0.2c0.1-0.1,0.2-0.3,0.3-0.6C50.9,37.1,50.9,37,50.9,36.9z"/>
	<path class="st4" d="M54.4,39.1c-0.1,0-0.3-0.1-0.7-0.7c-0.2-0.3-0.2-0.4-0.2-0.4c0-0.1,0-0.2,0.2-0.4l0.2-0.3l-0.1-0.3
		c-0.1-0.1-0.1-0.2-0.2-0.3l0,0c-0.1,0-0.2,0-0.3-0.1c-0.2,0-0.3,0-0.3,0c0,0-0.1,0-0.1,0c-0.3,0-0.7,0.3-1.3,0.8
		c-0.4,0.3-0.7,0.7-0.9,1.1c-0.2,0.4-0.2,0.6-0.2,0.9c0.1,0.2,0.2,0.3,0.3,0.4c0.1,0.1,0.2,0.1,0.4,0.1c0.2,0,0.4-0.1,0.6-0.2
		c0.1-0.1,0.3-0.2,0.6-0.5c0.3-0.3,0.5-0.5,0.5-0.6c0,0,0-0.1,0.1-0.1c0,0,0,0.1,0.1,0.1c0.1,0.3,0.3,0.6,0.6,0.8
		c0.4,0.4,0.8,0.5,1.1,0.2c0.1-0.1,0.2-0.2,0.2-0.3c0-0.1,0-0.2-0.1-0.3C54.6,39.1,54.5,39.1,54.4,39.1z M52.7,37.5
		c0,0-0.1,0.1-0.1,0.1c0,0,0,0.1-0.1,0.3c-0.1,0.2-0.2,0.3-0.2,0.4c-0.1,0.2-0.3,0.3-0.5,0.5l0,0c-0.2,0.2-0.4,0.3-0.4,0.4
		c-0.2,0.1-0.2,0.1-0.3,0.1c0,0-0.1-0.1-0.1-0.1c0-0.1,0-0.1,0.1-0.2c0.1-0.1,0.2-0.2,0.3-0.4c0.1-0.1,0.2-0.3,0.4-0.5
		c0.2-0.2,0.4-0.3,0.6-0.4C52.6,37.6,52.6,37.5,52.7,37.5z"/>
	<path class="st4" d="M58.2,36.7c-0.2,0.1-0.5,0.3-0.9,0.5c-0.2,0.1-0.4,0.3-0.7,0.5c-0.2,0.2-0.3,0.2-0.4,0.3c0,0,0,0,0-0.1
		c0.1-0.2,0.1-0.4,0.2-0.7c0-0.1,0-0.2-0.1-0.3c-0.1-0.1-0.1-0.1-0.2-0.1c-0.1,0-0.2,0-0.3,0.1c-0.1,0.1-0.1,0.2-0.1,0.4
		c0,0.2-0.1,0.4-0.2,0.5c-0.3,0.6-0.3,0.8-0.3,0.9c0,0,0,0.1-0.2,0.5c-0.2,0.3-0.2,0.5-0.3,0.6c0,0.1,0,0.3,0.1,0.4
		c0.1,0.1,0.2,0.1,0.2,0.1c0,0,0.1,0,0.1,0c0.1,0,0.2-0.1,0.3-0.4c0.1-0.2,0.2-0.4,0.3-0.5c0-0.1,0.2-0.3,0.7-0.8
		c0.3-0.2,0.6-0.5,1-0.8c0.5-0.4,0.7-0.4,0.8-0.4c0,0,0.1,0,0.1,0.2c0,0,0,0.1-0.2,0.6c-0.1,0.3-0.2,0.6-0.3,0.9
		c-0.1,0.2-0.1,0.3-0.2,0.5c0,0.1,0,0.2,0,0.2c0,0.1,0.1,0.1,0.1,0.2c0.1,0.1,0.2,0.1,0.3,0c0.1,0,0.2-0.1,0.3-0.3
		c0.1-0.1,0.1-0.2,0.1-0.2c0-0.1,0.1-0.1,0.1-0.2c0,0,0-0.1,0.1-0.3c0.1-0.1,0.1-0.2,0.2-0.3c0-0.1,0.1-0.3,0.1-0.4
		c0-0.1,0.1-0.3,0.1-0.4l0.1-0.3c0-0.2,0-0.3-0.1-0.5C59.1,36.7,58.8,36.5,58.2,36.7z"/>
	<path class="st4" d="M68,39.1c-0.1,0-0.3-0.1-0.7-0.7c-0.2-0.3-0.2-0.4-0.2-0.4c0-0.1,0-0.2,0.2-0.4l0.2-0.3l-0.1-0.3
		c-0.1-0.1-0.1-0.2-0.2-0.3l0,0c-0.1,0-0.2,0-0.3-0.1c-0.2,0-0.3,0-0.3,0c0,0-0.1,0-0.1,0c-0.3,0-0.7,0.3-1.3,0.8
		c-0.4,0.3-0.7,0.7-0.9,1.1c-0.2,0.4-0.2,0.6-0.2,0.9c0.1,0.2,0.2,0.3,0.3,0.4c0.1,0.1,0.2,0.1,0.4,0.1c0.2,0,0.4-0.1,0.6-0.2
		c0.1-0.1,0.3-0.2,0.6-0.5c0.3-0.3,0.5-0.5,0.5-0.6c0,0,0-0.1,0.1-0.1c0,0,0,0.1,0.1,0.1c0.1,0.3,0.3,0.6,0.6,0.8
		c0.4,0.4,0.8,0.5,1.1,0.2c0.1-0.1,0.2-0.2,0.2-0.3c0-0.1,0-0.2-0.1-0.3C68.2,39.1,68.1,39.1,68,39.1z M66.2,37.5
		c0,0-0.1,0.1-0.1,0.1c0,0,0,0.1-0.1,0.3c-0.1,0.2-0.2,0.3-0.2,0.4c-0.1,0.2-0.3,0.3-0.5,0.5l0,0c-0.2,0.2-0.3,0.3-0.4,0.4
		c-0.2,0.1-0.2,0.1-0.3,0.1c0,0-0.1-0.1-0.1-0.1c0-0.1,0-0.1,0.1-0.2c0.1-0.1,0.2-0.2,0.3-0.4c0.1-0.1,0.2-0.3,0.4-0.5
		c0.2-0.2,0.4-0.3,0.6-0.4C66.1,37.6,66.2,37.5,66.2,37.5z"/>
	<path class="st4" d="M76.2,37.5c-0.4-0.1-0.7-0.1-1-0.1c-0.2,0-0.3,0-0.3,0c0,0,0-0.2,0-0.6c0-0.5,0-0.7,0-0.7c0-0.1,0-0.2,0.1-0.6
		c0-0.3,0.1-0.7,0.1-1.2v-0.8l-0.2,0c-0.1,0-0.2,0-0.3,0.1c0,0-0.1,0.1-0.1,0.7c0,0.4-0.1,0.9-0.1,1.4c-0.1,0.6-0.1,1-0.1,1.1
		c0,0.6-0.1,0.8-0.2,0.9c-0.1,0.1-0.1,0.3-0.1,0.4c0.1,0.5,0.1,1,0.1,1.5c0,0.4,0,0.5,0,0.5c0,0.1,0.1,0.2,0.1,0.2
		c0.1,0.1,0.2,0.1,0.3,0.1c0.1,0,0.2,0,0.2-0.1c0.1-0.1,0.2-0.3,0.2-0.5c0-0.2,0-0.2,0-0.2c0,0,0,0,0,0c0.1,0,0.2,0,0.4-0.1
		c0.2-0.1,0.4-0.2,0.5-0.3c0.3-0.2,0.4-0.2,0.4-0.3c0.3-0.2,0.5-0.3,0.6-0.4c0.1-0.1,0.2-0.2,0.2-0.3c0.1-0.2,0.1-0.3,0-0.4
		C76.8,37.6,76.6,37.5,76.2,37.5z M75.8,38.1l-0.1,0.1l-0.2,0.2c-0.1,0.1-0.2,0.2-0.4,0.3h0c-0.1,0.1-0.2,0.1-0.2,0.1
		c0,0,0-0.1,0-0.3c0-0.2,0-0.4,0-0.4c0,0,0,0,0,0c0,0,0.1,0,0.4,0c0.2,0,0.3,0,0.4,0C75.8,38.1,75.8,38.1,75.8,38.1z"/>
	<path class="st4" d="M81,37.2c0-0.2-0.2-0.4-0.3-0.6c-0.1-0.1-0.2-0.2-0.2-0.2c-0.1,0-0.2-0.1-0.3-0.1c-0.2,0-0.3,0-0.5,0.1
		c-0.1,0.1-0.3,0.2-0.5,0.4c-0.2,0.2-0.4,0.4-0.6,0.7c-0.2,0.2-0.4,0.5-0.5,0.7c-0.1,0.3-0.2,0.4-0.3,0.5c0,0.1,0,0.2,0,0.4
		c0,0.3,0.1,0.5,0.2,0.7c0.2,0.2,0.4,0.3,0.7,0.4h0c0.1,0,0.3,0.1,0.6,0.1c0.1,0,0.1,0,0.2,0c0.2,0,0.3,0,0.4,0c0.1,0,0.1,0,0.2,0
		c0.1,0,0.1,0,0.2-0.1c0.2-0.1,0.3-0.2,0.4-0.3c0-0.1,0.1-0.3,0-0.4c-0.1-0.1-0.1-0.1-0.2-0.1c-0.1,0-0.1,0-0.2,0.1
		c0,0-0.1,0.1-0.3,0.1c-0.2,0-0.3,0.1-0.4,0.1c-0.1,0-0.3,0-0.4,0c-0.2,0-0.3-0.1-0.3-0.1c0,0-0.1-0.1-0.1-0.2
		c0-0.1-0.1-0.2-0.1-0.3c0-0.1,0-0.1,0-0.2c0,0,0,0,0,0c0,0,0.1,0,0.4-0.1c0.2-0.1,0.4-0.1,0.6-0.2c0.2-0.1,0.4-0.1,0.5-0.2
		c0.1-0.1,0.2-0.1,0.3-0.1c0.4,0,0.6-0.1,0.7-0.3c0.2-0.2,0.1-0.4,0-0.4C81.1,37.4,81.1,37.3,81,37.2z M80.3,37.5c0,0-0.1,0-0.2,0.1
		c-0.1,0-0.2,0.1-0.3,0.1c-0.1,0.1-0.2,0.1-0.2,0.1l-0.4,0.1l0,0c-0.1,0-0.1,0.1-0.2,0.1c0.1-0.1,0.2-0.2,0.3-0.4
		c0.2-0.3,0.4-0.5,0.5-0.5c0,0,0.1,0,0.1,0c0,0,0.1,0,0.1,0c0,0,0.1,0.1,0.1,0.2C80.3,37.4,80.3,37.5,80.3,37.5z"/>
	<path class="st4" d="M85.2,39.1c-0.1,0.1-0.2,0.1-0.3,0.2c-0.1,0-0.3,0.1-0.5,0.1c-0.3,0.1-0.5,0.1-0.5,0c0-0.1-0.1-0.2,0-0.4
		c0-0.2,0.1-0.6,0.3-1.2c0.1-0.4,0.3-0.4,0.4-0.4s0.3,0,0.3-0.1c0.1-0.1,0.2-0.2,0.1-0.3c0-0.1,0-0.1-0.1-0.2c0,0-0.1,0-0.2,0
		c-0.2,0-0.2,0-0.2,0l0,0l0,0c0,0,0,0,0-0.2c0-0.1,0.1-0.2,0.1-0.3c0,0,0-0.1,0.2-0.5c0.1-0.3,0.2-0.5,0.2-0.5
		c0.1-0.1,0.1-0.2,0.1-0.4c0-0.1,0-0.2-0.1-0.2c0-0.1-0.1-0.1-0.2-0.1c-0.1,0-0.2,0-0.3,0.1c-0.1,0.1-0.1,0.2-0.2,0.3
		c0,0,0,0.1-0.1,0.3c-0.2,0.3-0.3,0.7-0.5,1.3c-0.1,0.2-0.1,0.2-0.1,0.2l0,0c0,0,0,0-0.2,0.1c-0.1,0-0.2,0.1-0.4,0.1
		c-0.2,0.1-0.2,0.1-0.2,0.1c-0.1,0-0.2,0-0.3,0.1c-0.1,0.1-0.2,0.1-0.2,0.2c-0.1,0.1-0.1,0.2,0,0.3c0,0.1,0.1,0.1,0.2,0.2
		c0.1,0,0.2,0,0.4-0.1c0.2-0.1,0.3-0.1,0.4-0.1l0.1,0l0,0c0,0,0,0,0,0.1c0,0.1,0,0.1,0,0.2c0,0.1,0,0.1,0,0.2l0,0
		c-0.2,0.9-0.2,1.4-0.1,1.7c0.1,0.2,0.4,0.3,0.8,0.3c0.3,0,0.7-0.1,1.1-0.2c0.4-0.1,0.6-0.3,0.7-0.5c0.1-0.2,0.1-0.3-0.1-0.4
		C85.7,39,85.5,39,85.2,39.1z"/>
	<path class="st4" d="M89.8,39.1c-0.1,0.1-0.2,0.1-0.3,0.2c-0.1,0-0.3,0.1-0.5,0.1c-0.2,0.1-0.4,0.1-0.5,0c0-0.1-0.1-0.2,0-0.4
		c0-0.2,0.1-0.6,0.3-1.2c0.1-0.4,0.3-0.4,0.4-0.4s0.3,0,0.3-0.1c0.1-0.1,0.1-0.2,0.1-0.3c0-0.1,0-0.1-0.1-0.2c0,0-0.1,0-0.2,0
		c-0.2,0-0.2,0-0.2,0l0,0l0,0c0,0,0,0,0-0.2c0-0.1,0.1-0.2,0.1-0.3c0,0,0-0.1,0.2-0.5c0.1-0.3,0.2-0.5,0.2-0.5
		c0.1-0.1,0.1-0.2,0.1-0.4c0-0.1,0-0.2-0.1-0.2c0-0.1-0.1-0.1-0.2-0.1c-0.1,0-0.2,0-0.3,0.1c-0.1,0.1-0.1,0.2-0.2,0.3
		c0,0,0,0.1-0.1,0.3c-0.2,0.3-0.3,0.7-0.5,1.3c-0.1,0.2-0.1,0.2-0.1,0.2l0,0c0,0,0,0-0.2,0.1c-0.1,0-0.2,0.1-0.4,0.1
		c-0.2,0.1-0.2,0.1-0.2,0.1c-0.1,0-0.2,0-0.3,0.1c-0.1,0.1-0.2,0.1-0.2,0.2c0,0.1-0.1,0.2,0,0.3c0,0.1,0.1,0.1,0.2,0.2
		c0.1,0,0.2,0,0.4-0.1c0.2-0.1,0.3-0.1,0.4-0.1l0.1,0l0,0c0,0,0,0,0,0.1l0,0.2c0,0.1,0,0.1,0,0.2l0,0c-0.2,0.9-0.2,1.4-0.1,1.7
		c0.1,0.2,0.4,0.3,0.8,0.3c0.3,0,0.7-0.1,1.1-0.2c0.4-0.1,0.6-0.3,0.7-0.5c0.1-0.2,0.1-0.3-0.1-0.4C90.2,39,90,38.9,89.8,39.1z"/>
	<path class="st4" d="M94.6,37.2c0-0.2-0.2-0.4-0.3-0.6c-0.1-0.1-0.2-0.2-0.2-0.2c-0.1,0-0.2-0.1-0.3-0.1c-0.2,0-0.3,0-0.5,0.1
		c-0.1,0.1-0.3,0.2-0.5,0.4c-0.2,0.2-0.4,0.4-0.6,0.7c-0.2,0.2-0.4,0.5-0.5,0.7c-0.1,0.3-0.2,0.4-0.3,0.5c0,0.1,0,0.2,0,0.4
		c0,0.3,0.1,0.5,0.2,0.7c0.2,0.2,0.4,0.3,0.7,0.4h0c0.1,0,0.3,0.1,0.6,0.1c0.1,0,0.1,0,0.2,0c0.2,0,0.3,0,0.4,0c0.1,0,0.1,0,0.2,0
		c0.1,0,0.1,0,0.2-0.1c0.2-0.1,0.3-0.2,0.4-0.3c0-0.1,0.1-0.3,0-0.4c-0.1-0.1-0.1-0.1-0.2-0.1c-0.1,0-0.1,0-0.2,0.1
		c-0.1,0-0.2,0.1-0.3,0.1c-0.2,0-0.3,0.1-0.4,0.1c-0.1,0-0.3,0-0.4,0c-0.2,0-0.3-0.1-0.3-0.1c0,0-0.1-0.1-0.1-0.2
		c0-0.1-0.1-0.2-0.1-0.3c0-0.1,0-0.1,0-0.2c0,0,0,0,0,0c0,0,0.1,0,0.4-0.1c0.2-0.1,0.4-0.1,0.6-0.2c0.2-0.1,0.4-0.1,0.5-0.2
		c0.1-0.1,0.2-0.1,0.3-0.1c0.4,0,0.6-0.1,0.7-0.3c0.2-0.2,0.1-0.4,0-0.4C94.7,37.4,94.6,37.3,94.6,37.2z M93.8,37.5
		c0,0-0.1,0-0.2,0.1c-0.1,0-0.2,0.1-0.3,0.1c-0.1,0.1-0.2,0.1-0.2,0.1l-0.4,0.1l0,0c-0.1,0-0.2,0.1-0.2,0.1c0.1-0.1,0.2-0.2,0.3-0.4
		c0.3-0.4,0.5-0.5,0.5-0.5c0,0,0.1,0,0.1,0c0,0,0.1,0,0.1,0c0,0,0.1,0.1,0.1,0.2C93.8,37.4,93.8,37.5,93.8,37.5z"/>
	<path class="st4" d="M99.1,36.2c-0.1,0-0.2,0-0.2,0.1c-0.2,0-0.4,0.1-0.4,0.3c-0.2,0.1-0.3,0.2-0.4,0.4c-0.1,0.2-0.2,0.3-0.3,0.5
		l0,0c0,0.1-0.1,0.1-0.1,0.1c0,0,0,0,0-0.1c0-0.2-0.1-0.3-0.2-0.6c-0.2-0.3-0.3-0.4-0.3-0.5c-0.1,0-0.2,0-0.3,0.1
		c-0.2,0.1-0.2,0.2-0.2,0.3c0,0.1,0,0.2,0.1,0.3c0,0,0,0.1,0.1,0.4c0.1,0.2,0.1,0.5,0.2,0.6c0,0.2,0,0.4,0,0.7
		c0,0.3-0.1,0.5-0.1,0.5l0,0c-0.1,0.1-0.1,0.3-0.1,0.5c0,0.2,0,0.4,0.1,0.4c0.1,0.1,0.1,0.1,0.2,0.1c0,0,0,0,0,0
		c0.1,0,0.2-0.1,0.3-0.2c0.1-0.1,0.2-0.2,0.2-0.4c0-0.2,0-0.5,0.1-0.9c0.1-0.1,0.2-0.4,0.3-0.7c0.2-0.5,0.3-0.6,0.3-0.6
		c0-0.1,0.2-0.2,0.3-0.4C98.8,37,99,37,99,36.9c0.3-0.1,0.4-0.3,0.4-0.4c0-0.1-0.1-0.2-0.1-0.2C99.3,36.2,99.2,36.2,99.1,36.2z"/>
	<path class="st4" d="M107.5,37c-0.3,0-0.5-0.1-0.7-0.1l-0.2-0.1l0-0.2c0-0.2,0-0.3-0.1-0.4c0,0-0.1-0.1-0.2-0.1
		c-0.1,0-0.2,0-0.3,0.1c-0.1,0.1-0.2,0.2-0.2,0.4c0,0.1,0,0.2-0.1,0.2c-0.1,0.1-0.2,0.2-0.2,0.3c0,0.1,0.1,0.2,0.2,0.4
		c0,0,0,0.1,0,0.1c0,0.1,0,0.2,0,0.5c-0.1,1.1-0.1,1.4-0.1,1.4c0,0.1,0,0.2,0,0.7c0,1.4,0,2.2,0.1,2.5c0,0.2,0.1,0.3,0.2,0.3
		c0,0,0.1,0,0.1,0c0,0,0.1,0,0.1,0c0.1,0,0.2-0.1,0.3-0.2c0.1-0.1,0.1-0.5-0.1-2.2c0-0.4,0-0.6,0-0.7c0-0.1,0.1-0.2,0.3-0.2
		c0.3-0.2,0.7-0.5,1.2-1c0.2-0.2,0.3-0.3,0.4-0.6c0.1-0.2,0.2-0.4,0.2-0.5C108.6,37.3,108.2,37.1,107.5,37z M107,38.7
		c-0.4,0.4-0.6,0.4-0.5,0.4c0,0-0.1-0.1,0-0.7c0-0.6,0.1-0.8,0.1-0.8c0,0,0,0,0.2,0c0,0,0.1,0,0.2,0c0.3,0,0.5,0.1,0.6,0.1
		c0.2,0.1,0.2,0.1,0.2,0.1C107.7,37.9,107.7,38,107,38.7z"/>
	<path class="st4" d="M112.1,32.8c-0.1,0-0.2,0-0.3,0.1c-0.1,0.1-0.1,0.2-0.2,0.5c0,0.5-0.1,0.9-0.2,1.4c-0.1,0.6-0.2,1-0.3,1.2
		c0,0.2-0.1,0.4-0.1,0.6c-0.1,0.3-0.1,0.6-0.2,0.8c-0.1,0.5-0.2,0.7-0.2,0.8c0,0.1-0.1,0.3-0.1,0.5c0,0.3-0.1,0.6-0.2,0.9
		c-0.2,0.5-0.2,0.5-0.2,0.5c0,0.1,0.1,0.1,0.1,0.2c0.1,0.1,0.1,0.1,0.2,0.1c0,0,0.1,0,0.1,0c0.1,0,0.1,0,0.2,0
		c0.1,0,0.1-0.1,0.2-0.2c0-0.1,0.1-0.2,0.1-0.3c0,0,0-0.1,0.1-0.3c0.1-0.2,0.1-0.4,0.1-0.7c0-0.2,0.1-0.5,0.1-0.9
		c0.1-0.5,0.1-0.6,0.1-0.7l0.1-0.3c0-0.1,0.1-0.3,0.1-0.5c0-0.2,0.1-0.4,0.1-0.6c0-0.1,0.1-0.4,0.1-0.6c0-0.1,0-0.2,0.1-0.3
		c0-0.1,0.1-0.2,0.1-0.3c0.2-0.6,0.2-1.1,0.2-1.4c0-0.1,0-0.3-0.1-0.3C112.3,32.9,112.2,32.8,112.1,32.8z"/>
	<path class="st4" d="M117.6,39.1c-0.1,0-0.3-0.1-0.7-0.7c-0.2-0.3-0.2-0.4-0.2-0.4c0-0.1,0-0.2,0.2-0.4l0.2-0.3l-0.1-0.3
		c-0.1-0.1-0.1-0.2-0.2-0.3l0,0c-0.1,0-0.2,0-0.3-0.1c-0.2,0-0.3,0-0.3,0c0,0-0.1,0-0.1,0c-0.3,0-0.7,0.3-1.3,0.8
		c-0.4,0.3-0.7,0.7-0.9,1.1c-0.2,0.4-0.2,0.6-0.2,0.9c0.1,0.2,0.2,0.3,0.3,0.4c0.1,0.1,0.2,0.1,0.4,0.1c0.2,0,0.4-0.1,0.6-0.2
		c0.1-0.1,0.3-0.2,0.6-0.5c0.3-0.3,0.5-0.5,0.5-0.6c0,0,0-0.1,0.1-0.1c0,0,0,0.1,0.1,0.1c0.1,0.3,0.3,0.6,0.6,0.8
		c0.4,0.4,0.8,0.5,1.1,0.2c0.1-0.1,0.2-0.2,0.2-0.3c0-0.1,0-0.2-0.1-0.3C117.8,39.1,117.7,39.1,117.6,39.1z M115.9,37.5
		c0,0-0.1,0.1-0.1,0.1c0,0,0,0.1-0.1,0.3c-0.1,0.2-0.2,0.3-0.2,0.4c-0.1,0.2-0.3,0.3-0.5,0.5l0,0c-0.2,0.2-0.4,0.3-0.4,0.4
		c-0.2,0.1-0.2,0.1-0.3,0.1c0,0-0.1-0.1-0.1-0.1c0-0.1,0-0.1,0.1-0.2c0.1-0.1,0.2-0.2,0.3-0.4c0.1-0.1,0.2-0.3,0.4-0.5
		c0.2-0.2,0.4-0.3,0.6-0.4C115.8,37.6,115.8,37.5,115.9,37.5z"/>
	<path class="st4" d="M121.7,39c-0.1,0-0.3,0-0.4,0.2c-0.2,0.2-0.5,0.3-0.9,0.4c-0.4,0.1-0.7,0.1-0.9,0.1c-0.1,0-0.2,0-0.3-0.1
		c-0.1,0-0.2-0.1-0.3-0.4c-0.1-0.2,0-0.4,0.2-0.7c0.1-0.2,0.3-0.3,0.5-0.6c0.2-0.2,0.4-0.4,0.6-0.4c0.2-0.1,0.4-0.1,0.5-0.1
		c0.1,0.1,0.3,0.1,0.5-0.2c0.1-0.1,0.1-0.3,0.1-0.4c0-0.1-0.1-0.1-0.2-0.2c-0.2,0-0.4-0.1-0.5,0c-0.1,0-0.3,0.1-0.5,0.2
		c-0.4,0.2-0.5,0.3-0.5,0.3c0,0-0.1,0.1-0.3,0.3c-0.3,0.3-0.6,0.6-0.9,1c-0.1,0.2-0.2,0.5-0.2,0.8c0,0.3,0.1,0.5,0.3,0.7
		c0.1,0.1,0.2,0.2,0.3,0.2c0.1,0,0.2,0.1,0.4,0.1l0,0c0.1,0,0.3,0,0.6,0c0.3,0,0.5,0,0.6,0c0.1,0,0.2,0,0.4-0.1
		c0.3-0.1,0.4-0.1,0.4-0.1c0,0,0.1,0,0.2-0.1l0.2-0.1c0.1,0,0.1-0.1,0.2-0.1c0.1-0.1,0.1-0.1,0.2-0.1c0,0,0.1-0.1,0.1-0.1
		c0-0.1,0-0.2,0-0.3c0-0.1,0-0.1-0.1-0.2C121.8,39,121.8,39,121.7,39z"/>
	<path class="st4" d="M126.2,37.2c0-0.2-0.2-0.4-0.3-0.6c-0.1-0.1-0.2-0.2-0.2-0.2c-0.1,0-0.2-0.1-0.3-0.1c-0.2,0-0.3,0-0.5,0.1
		c-0.1,0.1-0.3,0.2-0.5,0.4c-0.2,0.2-0.4,0.4-0.6,0.7c-0.2,0.2-0.4,0.5-0.5,0.7c-0.1,0.3-0.2,0.4-0.3,0.5c0,0.1,0,0.2,0,0.4
		c0,0.3,0.1,0.5,0.2,0.7c0.2,0.2,0.4,0.3,0.7,0.4h0c0.1,0,0.3,0.1,0.6,0.1c0.1,0,0.1,0,0.2,0c0.2,0,0.3,0,0.4,0c0.1,0,0.1,0,0.2,0
		c0.1,0,0.1,0,0.2-0.1c0.2-0.1,0.3-0.2,0.4-0.3c0-0.1,0.1-0.3,0-0.4c-0.1-0.1-0.1-0.1-0.2-0.1c-0.1,0-0.1,0-0.2,0.1
		c-0.1,0-0.2,0.1-0.3,0.1c-0.2,0-0.3,0.1-0.4,0.1c-0.1,0-0.3,0-0.4,0c-0.2,0-0.3-0.1-0.3-0.1c0,0-0.1-0.1-0.1-0.2
		c0-0.1-0.1-0.2-0.1-0.3c0-0.1,0-0.1,0-0.2c0,0,0,0,0,0c0,0,0.1,0,0.4-0.1c0.2-0.1,0.4-0.1,0.6-0.2c0.2-0.1,0.4-0.1,0.5-0.2
		c0.1-0.1,0.2-0.1,0.3-0.1c0.4,0,0.6-0.1,0.7-0.3c0.2-0.2,0.1-0.4,0-0.4C126.3,37.4,126.2,37.3,126.2,37.2z M125.4,37.5
		c0,0-0.1,0-0.2,0.1c-0.1,0-0.2,0.1-0.3,0.1c-0.1,0.1-0.2,0.1-0.2,0.1l-0.4,0.1l0,0c-0.1,0-0.2,0.1-0.2,0.1c0.1-0.1,0.2-0.2,0.3-0.4
		c0.3-0.4,0.5-0.5,0.5-0.5c0,0,0.1,0,0.1,0c0,0,0.1,0,0.1,0c0,0,0.1,0.1,0.1,0.2C125.4,37.4,125.4,37.5,125.4,37.5z"/>
	<path class="st4" d="M129.8,39.2c-0.1-0.1-0.2-0.1-0.3-0.1c-0.1,0-0.2,0-0.3,0.1l-0.3,0.2l0,0.3c0,0.1,0,0.2,0.1,0.3
		c0,0.1,0.1,0.1,0.1,0.2c0.1,0,0.1,0,0.2,0c0.1,0,0.2,0,0.2,0c0.1,0,0.1-0.1,0.1-0.2c0-0.1,0.1-0.2,0.1-0.3l0.1-0.3L129.8,39.2z"/>
</g>
</svg>
